<svg height="60" width="60" xmlns="http://www.w3.org/2000/svg"><path d="m12 18.00002h6v6h-6z" fill="#fff"/><path d="m18 6h6v6h-6z"/><path d="m12 6h6v6h-6z"/><path d="m24 12.00002h6v6h-6z"/><path d="m30 12.00002h6v6h-6z"/><path d="m36 6h6v6h-6z"/><path d="m42 6h6v6h-6z"/><path d="m48 6h6v6h-6z"/><path d="m54 12.00002h6v6h-6z"/><path d="m54 18.00002h6v6h-6z"/><path d="m6 6h6v6h-6z"/><path d="m0 12.00002h6v6h-6z"/><path d="m0 18.00002h6v6h-6z"/><path d="m0 24.00002h6v6h-6z"/><path d="m54 24.00002h6v6h-6z"/><path d="m6 30.00002h6v6h-6z"/><path d="m12 36.00002h6v6h-6z"/><path d="m18 42.00002h6v6h-6z"/><path d="m24 48.00002h6v6h-6z"/><path d="m30 48.00002h6v6h-6z"/><path d="m36 42.00002h6v6h-6z"/><path d="m42 36.00002h6v6h-6z"/><path d="m48 30.00002h6v6h-6z"/><path d="m6 12.00002h6v6h-6z" fill="#9d0000"/><path d="m12 12.00002h6v6h-6z" fill="#f00"/><path d="m18 12.00002h6v6h-6z" fill="#f00"/><path d="m6 18.00002h6v6h-6z" fill="#9d0000"/><path d="m12 18.00002h6v6h-6z" fill="#f00"/><path d="m18 18.00002h6v6h-6z" fill="#f00"/><path d="m6 24.00002h6v6h-6z" fill="#9d0000"/><path d="m12 24.00002h6v6h-6z" fill="#f00"/><path d="m18 24.00002h6v6h-6z" fill="#f00"/><path d="m12 30.00002h6v6h-6z" fill="#9d0000"/><path d="m18 30.00002h6v6h-6z" fill="#f00"/><path d="m18 36.00002h6v6h-6z" fill="#9d0000"/><path d="m24 36.00002h6v6h-6z" fill="#f00"/><path d="m24 42.00002h6v6h-6z" fill="#9d0000"/><g fill="#f00"><path d="m30 42.00002h6v6h-6z"/><path d="m30 36.00002h6v6h-6z"/><path d="m24 30.00002h6v6h-6z"/><path d="m30 30.00002h6v6h-6z"/><path d="m30 24.00002h6v6h-6z"/><path d="m24 24.00002h6v6h-6z"/><path d="m24 18.00002h6v6h-6z"/><path d="m30 18.00002h6v6h-6z"/><path d="m36 24.00002h6v6h-6z"/><path d="m42 30.00002h6v6h-6z"/><path d="m36 30.00002h6v6h-6z"/><path d="m36 36.00002h6v6h-6z"/><path d="m42 24.00002h6v6h-6z"/></g><path d="m48 24.00002h6v6h-6z" fill="#ff5757"/><path d="m36 18.00002h6v6h-6z" fill="#f00"/><path d="m42 18.00002h6v6h-6z" fill="#f00"/><path d="m48 18.00002h6v6h-6z" fill="#ff5757"/><path d="m48 12.00002h6v6h-6z" fill="#ff5757"/><path d="m42 12.00002h6v6h-6z" fill="#ff5757"/><path d="m36 12.00002h6v6h-6z" fill="#ff5757"/></svg>